<?xml version="1.0" encoding="UTF-8" standalone="no"?>
<!-- Generator: Adobe Illustrator 16.0.0, SVG Export Plug-In . SVG Version: 6.00 Build 0)  -->

<svg
   version="1.1"
   id="Layer_1"
   x="0px"
   y="0px"
   width="1000px"
   height="627.945px"
   viewBox="0 0 1000 627.945"
   enable-background="new 0 0 1000 627.945"
   xml:space="preserve"
   sodipodi:docname="Pokémon_GO.svg"
   inkscape:version="1.1 (c68e22c387, 2021-05-23)"
   xmlns:inkscape="http://www.inkscape.org/namespaces/inkscape"
   xmlns:sodipodi="http://sodipodi.sourceforge.net/DTD/sodipodi-0.dtd"
   xmlns:xlink="http://www.w3.org/1999/xlink"
   xmlns="http://www.w3.org/2000/svg"
   xmlns:svg="http://www.w3.org/2000/svg"><defs
   id="defs375" /><sodipodi:namedview
   id="namedview373"
   pagecolor="#ffffff"
   bordercolor="#666666"
   borderopacity="1.0"
   inkscape:pageshadow="2"
   inkscape:pageopacity="0.0"
   inkscape:pagecheckerboard="0"
   showgrid="false"
   inkscape:zoom="0.28827259"
   inkscape:cx="584.5162"
   inkscape:cy="-32.954919"
   inkscape:window-width="1366"
   inkscape:window-height="697"
   inkscape:window-x="-8"
   inkscape:window-y="-8"
   inkscape:window-maximized="1"
   inkscape:current-layer="Layer_1" />
<g
   id="g370">
	<path
   fill="#58585A"
   d="M657.205,327.543c-63.793,0-118.386,39.994-140.123,96.209h-1.399h-7.742h-7.854h-20.045l-1.409-0.006   l11.179-11.205l6.589-6.607l6.495-6.512l3.51-3.52l-3.293-3.725l-6.092-6.889l-6.18-6.988   c-28.523-32.258-69.539-50.758-112.529-50.758c-82.82,0-150.199,67.381-150.199,150.201s67.379,150.201,150.199,150.201   c63.143,0,117.271-39.184,139.447-94.498c22.176,55.314,76.305,94.496,139.446,94.496c82.82,0,150.199-67.379,150.199-150.199   S740.025,327.543,657.205,327.543 M657.205,512.309c-19.059,0-34.563-15.506-34.563-34.564s15.505-34.564,34.563-34.564   s34.563,15.506,34.563,34.564S676.264,512.309,657.205,512.309"
   id="path2" />
	<path
   fill="#08224E"
   d="M657.205,332.836c-66.175,0-122.09,44.605-139.363,105.314l-0.373-1.572l-1.786-7.533h-7.742h-7.854   h-20.045l-9.885-0.049h-4.238l20.146-20.193l6.588-6.605l6.497-6.512l-6.094-6.891l-6.18-6.988   c-27.521-31.121-67.09-48.971-108.564-48.971c-79.902,0-144.906,65.006-144.906,144.908s65.004,144.908,144.906,144.908   c66.28,0,122.269-44.746,139.447-105.605c17.177,60.859,73.167,105.605,139.446,105.605c79.901,0,144.907-65.006,144.907-144.908   S737.106,332.836,657.205,332.836 M657.205,517.602c-21.979,0-39.857-17.879-39.857-39.857s17.879-39.857,39.857-39.857   c21.978,0,39.856,17.879,39.856,39.857S679.183,517.602,657.205,517.602"
   id="path4" />
	<path
   fill="#BCBDC0"
   d="M657.205,342.629c-74.502,0-135.115,60.613-135.115,135.115s60.613,135.115,135.115,135.115   c74.501,0,135.115-60.613,135.115-135.115S731.706,342.629,657.205,342.629 M657.205,527.393   c-27.377,0-49.649-22.271-49.649-49.648s22.272-49.648,49.649-49.648c27.376,0,49.648,22.271,49.648,49.648   S684.581,527.393,657.205,527.393"
   id="path6" />
	<path
   fill="#BCBDC0"
   d="M509.751,446.479l-1.811-7.641h-7.854h-20.045l-9.932-0.051h-27.791l36.812-36.9l6.589-6.605l-6.18-6.99   c-25.662-29.02-62.559-45.662-101.229-45.662c-74.502,0-135.115,60.613-135.115,135.115s60.613,135.115,135.115,135.115   c74.504,0,135.117-60.613,135.117-135.115C513.429,467.285,512.19,456.766,509.751,446.479 M374.929,514h37.457   c-9.034,8.553-21.092,13.484-34.074,13.484c-27.378,0-49.65-22.271-49.65-49.65c0-27.377,22.272-49.648,49.65-49.648   c11.332,0,22.037,3.77,30.686,10.602h-34.068h-9.934v9.934v55.348V514H374.929z"
   id="path8" />
	<path
   fill="#FFFFFF"
   d="M699.779,477.742H614.63c0,23.514,19.063,42.576,42.575,42.576   C680.719,520.318,699.779,501.256,699.779,477.742"
   id="path10" />
	<path
   fill="#ED1C24"
   d="M699.779,477.742c0-23.514-19.061-42.576-42.574-42.576c-23.513,0-42.575,19.063-42.575,42.576h42.575   H699.779z"
   id="path12" />
	<path
   fill="#08224E"
   d="M701.663,474.385h-23.688c-1.614-10.021-10.3-17.707-20.77-17.707s-19.156,7.686-20.771,17.707h-23.368   v7.182h23.439c1.807,9.793,10.393,17.24,20.7,17.24c10.307,0,18.894-7.447,20.699-17.24h23.759V474.385z"
   id="path14" />
	<path
   fill="#FFFFFF"
   d="M671.089,477.742c0-7.666-6.217-13.883-13.884-13.883c-7.668,0-13.884,6.217-13.884,13.883   c0,7.668,6.216,13.885,13.884,13.885C664.872,491.627,671.089,485.41,671.089,477.742"
   id="path16" />
	<path
   fill="#09234E"
   d="M657.205,352.561c-69.136,0-125.183,56.047-125.183,125.184s56.047,125.182,125.183,125.182   s125.184-56.045,125.184-125.182S726.341,352.561,657.205,352.561 M657.205,537.326c-32.907,0-59.582-26.676-59.582-59.582   s26.675-59.582,59.582-59.582c32.906,0,59.581,26.676,59.581,59.582S690.111,537.326,657.205,537.326"
   id="path18" />
	<path
   fill="#09234E"
   d="M500.087,448.77H470.11v-0.049h-95.182v55.348h56.883c-9.702,19.748-30.01,33.35-53.5,33.35   c-32.906,0-59.582-26.678-59.582-59.584c0-32.904,26.676-59.582,59.582-59.582c19.242,0,36.342,9.131,47.236,23.285l46.551-46.666   c-22.936-25.938-56.439-42.311-93.787-42.311c-69.136,0-125.182,56.047-125.182,125.184s56.046,125.182,125.182,125.182   c69.137,0,125.184-56.045,125.184-125.182C503.495,467.766,502.293,458.074,500.087,448.77"
   id="path20" />
	<g
   id="g34">
		<defs
   id="defs23">
			<path
   id="SVGID_1_"
   d="M597.623,477.744c0-32.906,26.675-59.582,59.582-59.582c32.906,0,59.581,26.676,59.581,59.582     s-26.675,59.582-59.581,59.582C624.298,537.326,597.623,510.65,597.623,477.744 M532.022,477.744     c0,69.137,56.047,125.182,125.183,125.182c69.137,0,125.184-56.045,125.184-125.182s-56.047-125.184-125.184-125.184     C588.069,352.561,532.022,408.607,532.022,477.744" />
		</defs>
		<clipPath
   id="SVGID_2_">
			<use
   xlink:href="#SVGID_1_"
   overflow="visible"
   id="use25" />
		</clipPath>
		<path
   clip-path="url(#SVGID_2_)"
   fill="#0C4DA2"
   d="M2004.11,1961.945c0,820.889-665.459,1486.35-1486.35,1486.35    c-820.888,0-1486.348-665.461-1486.348-1486.35S-303.127,475.598,517.761,475.598    C1338.651,475.598,2004.11,1141.057,2004.11,1961.945"
   id="path28" />
		<path
   clip-path="url(#SVGID_2_)"
   fill="#B9E5FB"
   d="M1999.448,1961.945c0,818.313-663.374,1481.688-1481.688,1481.688    c-818.312,0-1481.685-663.375-1481.685-1481.688S-300.551,480.26,517.761,480.26    C1336.074,480.26,1999.448,1143.633,1999.448,1961.945"
   id="path30" />
		<path
   clip-path="url(#SVGID_2_)"
   fill="#0C4DA2"
   d="M1995.251,1961.945c0,815.996-661.496,1477.49-1477.49,1477.49    s-1477.488-661.494-1477.488-1477.49c0-815.994,661.495-1477.488,1477.488-1477.488S1995.251,1145.951,1995.251,1961.945"
   id="path32" />
	</g>
	<g
   id="g44">
		<defs
   id="defs37">
			<path
   id="SVGID_3_"
   d="M657.205,602.926c56.486,0,104.233-37.414,119.816-88.811c-21.883-3.893-44.053-7.316-66.261-10.23     c-9.685,19.803-30.028,33.441-53.556,33.441c-27.423,0-50.519-18.525-57.454-43.744c-22.201-1.221-44.538-1.947-66.991-2.174     C539.566,554.121,592.686,602.926,657.205,602.926" />
		</defs>
		<clipPath
   id="SVGID_4_">
			<use
   xlink:href="#SVGID_3_"
   overflow="visible"
   id="use39" />
		</clipPath>
		<path
   clip-path="url(#SVGID_4_)"
   fill="#063374"
   d="M596.256,587.953c-4.08-1.906-7.851-4.303-11.33-7.162    c2.113-1.424,4.57-1.258,6.932-1.428c3.044-0.219,6.008-0.697,9.318-1.998c-4.33-1.57-8.401-1.67-12.41-1.992    c-2.483-0.199-4.999-0.129-7.503,0.174c-2.879,0.346-3.822-0.738-3.243-3.488c0.616-2.918,0.236-3.504-2.668-4.25    c-2.017-0.518-4.066-0.188-6.099-0.299c-2.104-1.68-3.92-3.637-5.564-5.762c1.176-2.025,3.182-2.539,6.176-1.439    c1.834,0.672,3.612,1.422,5.585,1.725c5.272,0.805,10.376-0.4,15.534-1.199c-2.544,0.121-5.012-0.512-7.527-0.699    c-0.809-0.061-1.839-0.139-1.913-1.229c-0.068-1.051,0.928-1.264,1.687-1.58c0.853-0.357,1.853-0.293,2.613-0.904    c-0.599-2.955-0.383-3.264,2.618-3.361c5.67-0.184,11.309-0.729,16.969-1.445c-6.155-2.004-12.379-3.551-18.889-1.807    c-4.59,1.23-9.109,2.75-13.956,2.576c-1.022-0.037-2.106,0.08-3.025-0.396c-4.513-2.348-8.851-1.156-13.185,0.529    c-5.878-7.16-10.047-15.318-13.852-23.688c-4.198-9.23-6.773-18.959-8.721-28.863c-0.499-2.535-2.249-7.576-2.54-10.152    c0.983-0.951,3.882,1.627,5.071,1.613c12.016-0.131,24.008,0.539,36.011,0.961c8.188,0.287,16.378,0.463,24.554,1.008    c0.876,0.059,1.647-0.227,2.41-0.576c1.675-0.248,1.644,1.219,1.996,2.141c1.594,4.17,2.999,8.393,5.263,12.303    c7.985,13.777,19.477,23.236,34.771,27.58c26.182,7.432,52.856-3.793,66.339-26.293c0.972-1.619,0.597-4.676,2.677-5.477    c3.289-0.26,7.288,1.613,10.488,2.059c11.508,1.609,22.998,3.352,34.456,5.293c0.366,0.063,0.74,0.092,1.1,0.184    c0.714,0.182,1.554,0.281,1.701,1.186c0.143,0.865-0.502,1.314-1.137,1.748c-0.436,0.297-1.116,0.273-1.344,1.158    c5.702,1.605,11.404,3.18,17.17,4.525c0.974,0.227,2.066,0.193,2.789,1.086c-2.768,9.244-7.245,17.672-12.381,25.771    c-1.006,1.584-1.585,3.572-3.492,4.477c-1.573,1.051-3.237,0.629-4.848,0.203c-3.625-0.961-7.292-1.408-11.036-1.189    c-1.2,0.07-2.436,0.029-3.494,1.078c0.03,1.615,1.37,2.211,2.533,2.875c2.86,1.629,6.082,2.262,9.19,3.201    c0.879,0.264,1.854,0.285,2.552,1.006c-7.116,9.072-15.187,17.107-25.084,23.17c-0.452,0.275-0.818,0.693-1.224,1.045    c-1.623-0.408-3.131,0.193-4.658,0.559c-15.309,3.639-30.56,7.545-46.001,10.609c-2.924,0.582-5.866,1.053-8.822,1.43    c-1.09,0.139-2.216,0.455-3.163-0.518c-0.229-1.695,1.704-2.088,2.075-3.412c-0.186-0.744-0.822-0.746-1.335-0.678    c-4.518,0.609-9.108,1.004-12.859,4.057c-0.88,0.717-1.898,1.174-2.995,1.451c-6.408,1.621-12.86,3.057-19.255,4.738    c-1.393,0.367-2.915,0.689-4.397,0.148c-7.905-2.041-15.658-4.498-22.912-8.328c-0.892-1.389,0.294-2.113,1.236-3.016    C602.079,588.33,599.031,589.268,596.256,587.953"
   id="path42" />
	</g>
	<g
   id="g58">
		<defs
   id="defs47">
			<path
   id="SVGID_5_"
   d="M253.13,477.744c0,69.137,56.046,125.182,125.182,125.182c69.137,0,125.184-56.045,125.184-125.182     c0-9.979-1.202-19.67-3.408-28.975H470.11v-0.049h-95.182v55.348h56.883c-9.702,19.748-30.01,33.35-53.5,33.35     c-32.906,0-59.582-26.678-59.582-59.584c0-32.904,26.676-59.582,59.582-59.582c19.242,0,36.342,9.131,47.236,23.285     l46.551-46.666c-22.936-25.936-56.439-42.311-93.787-42.311C309.176,352.561,253.13,408.607,253.13,477.744" />
		</defs>
		<clipPath
   id="SVGID_6_">
			<use
   xlink:href="#SVGID_5_"
   overflow="visible"
   id="use49" />
		</clipPath>
		<path
   clip-path="url(#SVGID_6_)"
   fill="#0C4DA2"
   d="M2004.11,1961.945c0,820.889-665.459,1486.35-1486.35,1486.35    c-820.888,0-1486.348-665.461-1486.348-1486.35S-303.127,475.598,517.761,475.598    C1338.651,475.598,2004.11,1141.057,2004.11,1961.945"
   id="path52" />
		<path
   clip-path="url(#SVGID_6_)"
   fill="#B9E5FB"
   d="M1999.448,1961.945c0,818.313-663.374,1481.688-1481.688,1481.688    c-818.312,0-1481.685-663.375-1481.685-1481.688S-300.551,480.26,517.761,480.26    C1336.074,480.26,1999.448,1143.633,1999.448,1961.945"
   id="path54" />
		<path
   clip-path="url(#SVGID_6_)"
   fill="#0C4DA2"
   d="M1995.251,1961.945c0,815.996-661.496,1477.49-1477.49,1477.49    s-1477.488-661.494-1477.488-1477.49c0-815.994,661.495-1477.488,1477.488-1477.488S1995.251,1145.951,1995.251,1961.945"
   id="path56" />
	</g>
	<g
   id="g68">
		<defs
   id="defs61">
			<path
   id="SVGID_7_"
   d="M374.927,498.182v5.887h56.885c-9.702,19.75-30.01,33.35-53.5,33.35     c-23.563,0-43.932-13.678-53.599-33.525c-22.254,2.916-44.287,6.322-66.218,10.225c15.582,51.395,63.33,88.809,119.816,88.809     c64.521,0,117.641-48.805,124.447-111.518C459.682,491.842,417.042,494.125,374.927,498.182" />
		</defs>
		<clipPath
   id="SVGID_8_">
			<use
   xlink:href="#SVGID_7_"
   overflow="visible"
   id="use63" />
		</clipPath>
		<path
   clip-path="url(#SVGID_8_)"
   fill="#063374"
   d="M476.478,556.633c-7.67,0.732-15.136,2.604-22.668,4.1    c-10.807,2.148-21.556,4.668-32.65,4.842c-0.883,0.012-1.865,0.328-2.672-0.459c-0.282-1.441,0.83-1.895,1.752-2.484    c5.953-3.818,12.648-5.824,19.367-7.645c13.235-3.586,26.533-6.949,39.802-10.41c0.048-0.014,0.063-0.148,0.192-0.482    c-1.799-0.289-3.549-0.785-5.309-0.818c-5.869-0.107-11.744-0.051-17.615-0.053c-1.035-0.002-1.994,0.318-1.939,1.5    c0.088,1.896-1.045,2.201-2.541,2.598c-6.651,1.758-13.412,2.582-20.252,3.301c-8.93,0.936-17.674-0.26-26.525-1.078    c9.566-2.256,19.748-1.344,29.545-5.426c-5.295-2.24-46.762-1.859-50.662,0.264c2.026,1.037,3.959,2.027,5.824,2.98    c-0.135,1.395-1.018,1.424-1.863,1.432c-4.273,0.045-8.551,0.16-12.776-0.734c-1.354-0.287-2.733-0.555-4.112-0.623    c-5.668-0.275-9.194-4.889-14.024-6.873c-1.578-0.648-1.192-2.072-0.305-3.24c-1.345-0.666-2.603-0.844-3.933-0.834    c-4.567,0.033-9.138-0.111-13.701,0.027c-9.965,0.301-19.904-0.508-29.855-0.711c-7.688-0.156-15.382-0.797-23.082-1.029    c-0.338-0.01-0.672-0.156-1.645-0.393c4.604-3.658,10.199-3.873,14.84-6.906c-2.898-2.033-6.23-2.18-9.404-2.713    c-8.523-1.436-17.062,0.023-25.594-0.027c-1.016-0.008-2.096,0.557-2.165,1.848c-2.12-3.551-4.886-9.16-5.925-13.115    c0.946-0.98,3.983-0.072,5.148-0.291c18.729-4.494,37.911-6.885,57.229-8.611c1.865-0.166,4.026-1.195,5.82-1.686    c2.958,4.922,5.308,10.398,9.195,14.711c8.373,9.285,18.457,15.619,30.711,18.504c16.18,3.807,31.297,1.264,45.335-7.463    c9.351-5.813,16.423-13.789,21.556-24.063c-1.904,0-3.451,0-4.996,0c-15.563,0-31.837,1.025-47.398,1.029    c-5.057,0.002-6.305-3.002-4.664-8.063c3.036-1.471,7.59-1.09,10.783-1.359c8.15-0.689,16.322-0.982,24.481-1.555    c6.954-0.488,13.929-1.234,20.887-1.553c16.344-0.752,32.7-1.295,49.06-1.734c6.506-0.176,13.02-0.412,19.525-0.502    c1.363-0.02,4.117-0.555,5.246,0.576c-0.959,6.848-3.509,14.52-5.353,21.219c-4.077,14.807-10.812,28.246-19.828,40.604    C478.449,554.422,477.429,555.502,476.478,556.633"
   id="path66" />
	</g>
	<g
   id="g136">
		<defs
   id="defs71">
			<path
   id="SVGID_9_"
   d="M253.13,477.744c0,69.137,56.046,125.182,125.182,125.182c69.137,0,125.184-56.045,125.184-125.182     c0-9.979-1.202-19.67-3.408-28.975H470.11v-0.049h-95.182v55.348h56.883c-9.702,19.748-30.01,33.35-53.5,33.35     c-32.906,0-59.582-26.678-59.582-59.584c0-32.904,26.676-59.582,59.582-59.582c19.242,0,36.342,9.131,47.236,23.285     l46.551-46.666c-22.936-25.936-56.439-42.311-93.787-42.311C309.176,352.561,253.13,408.607,253.13,477.744" />
		</defs>
		<clipPath
   id="SVGID_10_">
			<use
   xlink:href="#SVGID_9_"
   overflow="visible"
   id="use73" />
		</clipPath>
		<path
   clip-path="url(#SVGID_10_)"
   fill="#FFFFFF"
   d="M265.034,446.977c-0.689-0.143-1.859-0.295-1.752-1.43    c0.118-1.242,1.268-1.426,2.355-1.234c0.875,0.15,2.005,0.162,1.758,1.535C267.181,447.031,266.228,447.098,265.034,446.977"
   id="path76" />
		<path
   clip-path="url(#SVGID_10_)"
   fill="#FFFFFF"
   d="M339.566,412.625c0.093-0.844,0.144-1.66,1.212-1.576    c1.548,0.121,1.233,1.344,1.288,2.316c0.054,0.949-0.259,1.811-1.343,1.652C339.269,414.807,339.813,413.439,339.566,412.625"
   id="path78" />
		<path
   clip-path="url(#SVGID_10_)"
   fill="#FFFFFF"
   d="M371.313,390.439c-0.115,0.773,0.093,1.775-1.178,1.768    c-1.133-0.01-1.314-0.822-1.326-1.707c-0.011-0.859,0.029-1.701,1.226-1.744C371.283,388.707,371.245,389.6,371.313,390.439"
   id="path80" />
		<path
   clip-path="url(#SVGID_10_)"
   fill="#FFFFFF"
   d="M356.14,402.068c0.914,0.098,1.394,0.705,1.411,1.455    c0.021,0.873-0.503,1.68-1.444,1.652c-0.8-0.023-1.219-0.781-1.176-1.574C354.973,402.85,355.28,402.184,356.14,402.068"
   id="path82" />
		<path
   clip-path="url(#SVGID_10_)"
   fill="#FFFFFF"
   d="M305.804,388.172c-0.746-0.205-1.168-0.576-1.067-1.203    c0.087-0.537,0.399-1.094,1.073-1.01c0.5,0.066,0.701,0.57,0.76,1.02C306.658,387.631,306.19,387.922,305.804,388.172"
   id="path84" />
		<path
   clip-path="url(#SVGID_10_)"
   fill="#FFFFFF"
   d="M407.64,388.406c-0.801-0.266-1.058-0.76-0.975-1.334    c0.085-0.594,0.528-1.043,1.154-0.879c0.422,0.109,0.764,0.547,0.683,1.076C408.414,387.854,408.036,388.205,407.64,388.406"
   id="path86" />
		<path
   clip-path="url(#SVGID_10_)"
   fill="#FFFFFF"
   d="M260.892,461.605c0.668,0.115,0.957,0.527,0.819,1.172    c-0.103,0.479-0.407,0.859-0.946,0.824c-0.631-0.043-1.025-0.432-1-1.072C259.791,461.854,260.261,461.605,260.892,461.605"
   id="path88" />
		<path
   clip-path="url(#SVGID_10_)"
   fill="#FFFFFF"
   d="M342.171,366.563c-0.438-0.043-1.086-0.08-1.037-0.838    c0.029-0.484,0.486-0.781,0.977-0.844c0.664-0.084,1.078,0.27,1.104,0.918C343.237,366.367,342.825,366.578,342.171,366.563"
   id="path90" />
		<path
   clip-path="url(#SVGID_10_)"
   fill="#FFFFFF"
   d="M388.229,366.488c0.512,0.139,0.771,0.486,0.79,0.998    c0.021,0.613-0.192,1.16-0.878,1.145c-0.482-0.012-0.813-0.428-0.832-0.947C387.286,367.049,387.635,366.662,388.229,366.488"
   id="path92" />
		<path
   clip-path="url(#SVGID_10_)"
   fill="#FFFFFF"
   d="M427.868,422.066c-0.089,0.826-0.535,1.189-1.123,1.117    c-0.463-0.059-0.715-0.525-0.681-1.049c0.044-0.664,0.398-1.023,1.062-0.906C427.629,421.318,427.856,421.715,427.868,422.066"
   id="path94" />
		<path
   clip-path="url(#SVGID_10_)"
   fill="#FFFFFF"
   d="M424.617,395.361c-0.534,0.006-0.841-0.301-0.896-0.791    c-0.059-0.533-0.064-1.137,0.634-1.283c0.651-0.137,1.015,0.256,1.103,0.861C425.552,394.783,425.175,395.15,424.617,395.361"
   id="path96" />
		<path
   clip-path="url(#SVGID_10_)"
   fill="#FFFFFF"
   d="M448.786,385.58c-0.484-0.104-0.852-0.361-0.809-0.9    c0.047-0.566,0.29-1.135,0.934-1.121c0.738,0.014,0.713,0.711,0.729,1.223C449.655,385.297,449.343,385.602,448.786,385.58"
   id="path98" />
		<path
   clip-path="url(#SVGID_10_)"
   fill="#FFFFFF"
   d="M429.456,385.479c-0.607-0.006-1.141-0.258-1.088-0.889    c0.048-0.553,0.523-0.938,1.152-0.895c0.5,0.035,0.844,0.359,0.91,0.834C430.528,385.227,430.08,385.467,429.456,385.479"
   id="path100" />
		<path
   clip-path="url(#SVGID_10_)"
   fill="#FFFFFF"
   d="M313.864,442.969c-0.131,0.623-0.533,0.943-1.144,0.869    c-0.47-0.061-0.843-0.375-0.772-0.904c0.072-0.545,0.299-1.055,0.982-1.033C313.599,441.922,313.819,442.379,313.864,442.969"
   id="path102" />
		<path
   clip-path="url(#SVGID_10_)"
   fill="#FFFFFF"
   d="M293.952,426.426c-0.027,0.906-0.344,1.361-0.797,1.352    c-0.601-0.018-0.938-0.521-0.891-1.152c0.047-0.664,0.448-0.988,1.105-0.881C293.97,425.842,293.95,426.344,293.952,426.426"
   id="path104" />
		<path
   clip-path="url(#SVGID_10_)"
   fill="#FFFFFF"
   d="M297.901,479.1c0.518,0.057,0.883,0.354,0.963,0.836    c0.102,0.625-0.226,1.107-0.838,1.24c-0.574,0.125-0.83-0.332-0.895-0.811C297.056,479.773,297.208,479.254,297.901,479.1"
   id="path106" />
		<path
   clip-path="url(#SVGID_10_)"
   fill="#FFFFFF"
   d="M389.014,382.088c0.003,0.609-0.177,1.141-0.893,1.088    c-0.489-0.037-0.802-0.439-0.803-0.957c0-0.615,0.335-1.115,0.939-1.123C388.755,381.09,388.981,381.58,389.014,382.088"
   id="path108" />
		<path
   clip-path="url(#SVGID_10_)"
   fill="#FFFFFF"
   d="M282.229,469.66c-0.023,0.742-0.533,0.916-1.127,0.895    c-0.646-0.023-0.634-0.52-0.604-0.994c0.035-0.512,0.311-1.004,0.768-1.008C281.854,468.547,282.194,469.035,282.229,469.66"
   id="path110" />
		<path
   clip-path="url(#SVGID_10_)"
   fill="#FFFFFF"
   d="M405.415,390.469c-0.678,0.09-0.951-0.33-1.105-0.732    c-0.238-0.627,0.139-1.059,0.705-1.252c0.577-0.197,0.835,0.229,0.924,0.695C406.043,389.738,405.987,390.277,405.415,390.469"
   id="path112" />
		<path
   clip-path="url(#SVGID_10_)"
   fill="#FFFFFF"
   d="M323.222,433.9c0.109,0.582-0.23,0.852-0.721,0.889    c-0.523,0.041-1.133,0.057-1.242-0.668c-0.083-0.543,0.346-0.826,0.762-0.957C322.636,432.975,323.039,433.305,323.222,433.9"
   id="path114" />
		<path
   clip-path="url(#SVGID_10_)"
   fill="#FFFFFF"
   d="M262.401,443.711c-0.018,0.521-0.248,0.914-0.793,0.924    c-0.529,0.012-0.834-0.365-0.866-0.871c-0.034-0.529,0.293-0.902,0.808-0.922C262.069,442.82,262.384,443.156,262.401,443.711"
   id="path116" />
		<path
   clip-path="url(#SVGID_10_)"
   fill="#FFFFFF"
   d="M333.288,375.564c-0.052,0.479-0.22,0.922-0.762,0.91    c-0.696-0.018-0.85-0.549-0.779-1.125c0.053-0.447,0.219-0.955,0.746-0.959C333.234,374.389,333.16,375.078,333.288,375.564"
   id="path118" />
		<path
   clip-path="url(#SVGID_10_)"
   fill="#FFFFFF"
   d="M361.331,385.9c0.568-0.037,0.877,0.273,0.953,0.775    c0.071,0.488-0.074,0.916-0.66,0.977c-0.636,0.066-1.135-0.217-1.168-0.854C360.433,386.318,360.856,386.012,361.331,385.9"
   id="path120" />
		<path
   clip-path="url(#SVGID_10_)"
   fill="#FFFFFF"
   d="M380.882,386.104c0.451,0.121,0.887,0.355,0.94,0.848    c0.083,0.764-0.536,0.838-1.082,0.857s-0.849-0.301-0.769-0.848C380.042,386.477,380.354,386.16,380.882,386.104"
   id="path122" />
		<path
   clip-path="url(#SVGID_10_)"
   fill="#FFFFFF"
   d="M306.505,405.799c-0.103,0.641-0.326,0.988-0.904,0.951    c-0.52-0.035-0.554-0.441-0.522-0.789c0.04-0.447,0.146-1.004,0.784-0.818C306.143,405.227,306.333,405.615,306.505,405.799"
   id="path124" />
		<path
   clip-path="url(#SVGID_10_)"
   fill="#FFFFFF"
   d="M387.011,470.924c-0.149,0.834-0.023,2.162-1.368,1.82    c-1.546-0.395-2.729-1.727-3.187-3.139c-0.316-0.979,1.114-1.26,2.008-1.305C386.22,468.213,386.872,469.33,387.011,470.924"
   id="path126" />
		<path
   clip-path="url(#SVGID_10_)"
   fill="#FFFFFF"
   d="M434.159,466.182c0.656-0.01,1.018,0.35,1.112,0.961    c0.083,0.547-0.298,0.859-0.742,0.99c-0.637,0.186-1.111-0.189-1.242-0.754C433.143,466.758,433.589,466.383,434.159,466.182"
   id="path128" />
		<path
   clip-path="url(#SVGID_10_)"
   fill="#FFFFFF"
   d="M487.687,460.934c-0.658-0.18-1.002-0.568-0.867-1.188    c0.123-0.564,0.522-0.943,1.146-0.83c0.521,0.096,0.673,0.535,0.653,1.012C488.593,460.547,488.271,460.898,487.687,460.934"
   id="path130" />
		<path
   clip-path="url(#SVGID_10_)"
   fill="#FFFFFF"
   d="M409.887,473.453c0.507,0.018,0.865,0.295,0.966,0.758    c0.136,0.625-0.236,1.039-0.801,1.213c-0.566,0.174-0.835-0.205-0.893-0.699C409.093,474.148,409.249,473.65,409.887,473.453"
   id="path132" />
		<path
   clip-path="url(#SVGID_10_)"
   fill="#FFFFFF"
   d="M494.722,467.121c-0.48-0.014-0.955-0.1-1.064-0.65    c-0.137-0.693,0.355-1.027,0.914-1.098c0.515-0.068,0.847,0.346,0.904,0.838C495.536,466.719,495.292,467.08,494.722,467.121"
   id="path134" />
	</g>
	<g
   id="g216">
		<defs
   id="defs139">
			<path
   id="SVGID_11_"
   d="M597.623,477.744c0-32.906,26.675-59.582,59.582-59.582c32.906,0,59.581,26.676,59.581,59.582     s-26.675,59.582-59.581,59.582C624.298,537.326,597.623,510.65,597.623,477.744 M532.022,477.744     c0,69.137,56.047,125.182,125.183,125.182c69.137,0,125.184-56.045,125.184-125.182s-56.047-125.184-125.184-125.184     C588.069,352.561,532.022,408.607,532.022,477.744" />
		</defs>
		<clipPath
   id="SVGID_12_">
			<use
   xlink:href="#SVGID_11_"
   overflow="visible"
   id="use141" />
		</clipPath>
		<path
   clip-path="url(#SVGID_12_)"
   fill="#FFFFFF"
   d="M655.938,354.885c1.846-0.061,2.582,1.016,2.638,2.564    c0.032,0.924-0.481,1.791-1.353,2.223c-0.477,0.232-3.256-2.797-3.244-3.496C654.004,354.74,655.282,355.227,655.938,354.885"
   id="path144" />
		<path
   clip-path="url(#SVGID_12_)"
   fill="#FFFFFF"
   d="M690.353,414.904c0.213-0.961,0.349-2.043,1.48-2.408    c0.517-0.166,3.181,3.156,3.064,3.783c-0.236,1.277-1.284,1.104-2.196,1.143C690.964,417.498,690.491,416.379,690.353,414.904"
   id="path146" />
		<path
   clip-path="url(#SVGID_12_)"
   fill="#FFFFFF"
   d="M571.77,446.377c0.809,0.223,2.004,0.203,1.783,1.504    c-0.182,1.076-1.215,1.338-2.162,1.18c-0.855-0.143-2.14-0.273-2.037-1.395C569.462,446.492,570.656,446.324,571.77,446.377"
   id="path148" />
		<path
   clip-path="url(#SVGID_12_)"
   fill="#FFFFFF"
   d="M743.421,466.988c-0.903-0.232-2.123-0.383-2.144-1.428    c-0.023-1.105,1.213-1.27,2.107-1.293c0.912-0.021,2.131,0.215,2.13,1.256C745.514,466.477,744.371,466.826,743.421,466.988"
   id="path150" />
		<path
   clip-path="url(#SVGID_12_)"
   fill="#FFFFFF"
   d="M702.692,417.23c0.783,0.309,2.078,0.199,1.956,1.41    c-0.103,1.018-1.261,1.303-2.16,1.301c-0.91-0.002-2.187-0.441-2.156-1.301C700.369,417.584,701.632,417.32,702.692,417.23"
   id="path152" />
		<path
   clip-path="url(#SVGID_12_)"
   fill="#FFFFFF"
   d="M719.29,437.453c0.771,0.32,2.07,0.256,1.983,1.383    c-0.073,0.922-1.156,1.404-2.115,1.361c-0.992-0.043-2.248-0.344-2.126-1.537C717.125,437.77,718.333,437.57,719.29,437.453"
   id="path154" />
		<path
   clip-path="url(#SVGID_12_)"
   fill="#FFFFFF"
   d="M723.786,396.682c-1.122,0.021-2.177,0.014-2.335-1.182    c-0.186-1.391,1.103-1.369,1.908-1.387c0.824-0.016,2.025-0.014,2.021,1.322C725.377,396.537,724.544,396.74,723.786,396.682"
   id="path156" />
		<path
   clip-path="url(#SVGID_12_)"
   fill="#FFFFFF"
   d="M678.089,394.334c-0.131,0.633-0.458,1.063-1.102,0.979    c-0.576-0.076-0.994-0.461-0.958-1.096c0.036-0.646,0.471-0.938,1.093-0.904C677.768,393.35,678.077,393.732,678.089,394.334"
   id="path158" />
		<path
   clip-path="url(#SVGID_12_)"
   fill="#FFFFFF"
   d="M612.143,385.348c-0.026,0.621-0.374,1.035-0.998,1.064    c-0.649,0.029-0.995-0.422-1.023-1.039c-0.023-0.535,0.361-0.859,0.833-0.934C611.587,384.342,611.984,384.699,612.143,385.348"
   id="path160" />
		<path
   clip-path="url(#SVGID_12_)"
   fill="#FFFFFF"
   d="M614.932,433.105c-0.082,0.551-0.328,1.031-0.991,1.037    c-0.653,0.004-0.983-0.422-0.987-1.051c-0.002-0.531,0.355-0.857,0.836-0.924C614.421,432.08,614.82,432.412,614.932,433.105"
   id="path162" />
		<path
   clip-path="url(#SVGID_12_)"
   fill="#FFFFFF"
   d="M609.114,373.463c-0.584,0.025-0.814-0.35-0.842-0.842    c-0.032-0.576,0.097-1.172,0.797-1.213c0.489-0.029,0.841,0.383,0.925,0.854C610.11,372.918,609.683,373.264,609.114,373.463"
   id="path164" />
		<path
   clip-path="url(#SVGID_12_)"
   fill="#FFFFFF"
   d="M645.073,379.711c0.464,0.053,0.988,0.102,1.041,0.686    c0.06,0.678-0.439,0.957-1.026,1.037c-0.529,0.072-0.892-0.178-0.979-0.725C643.993,379.971,644.421,379.727,645.073,379.711"
   id="path166" />
		<path
   clip-path="url(#SVGID_12_)"
   fill="#FFFFFF"
   d="M701.318,381.111c0.597,0.008,0.901,0.385,0.944,0.992    c0.035,0.5-0.227,0.906-0.685,1.031c-0.636,0.174-1.062-0.225-1.146-0.809C700.352,381.756,700.629,381.287,701.318,381.111"
   id="path168" />
		<path
   clip-path="url(#SVGID_12_)"
   fill="#FFFFFF"
   d="M749.467,479.33c0.591-0.012,1.104,0.102,1.016,0.861    c-0.054,0.488-0.359,0.832-0.865,0.852c-0.578,0.021-1.144-0.234-1.219-0.818C748.311,479.551,748.899,479.385,749.467,479.33"
   id="path170" />
		<path
   clip-path="url(#SVGID_12_)"
   fill="#FFFFFF"
   d="M595.547,438.092c-0.131,0.67-0.587,0.959-1.183,0.902    c-0.688-0.061-0.883-0.635-0.787-1.203c0.078-0.459,0.44-0.816,0.982-0.76C595.188,437.096,595.542,437.449,595.547,438.092"
   id="path172" />
		<path
   clip-path="url(#SVGID_12_)"
   fill="#FFFFFF"
   d="M564.024,406.342c-0.158,0.537-0.39,1.025-1.053,0.998    c-0.618-0.027-0.999-0.416-1.009-1.014c-0.009-0.527,0.404-0.752,0.898-0.777C563.439,405.52,563.938,405.633,564.024,406.342"
   id="path174" />
		<path
   clip-path="url(#SVGID_12_)"
   fill="#FFFFFF"
   d="M653.456,363.617c-0.063,0.574-0.465,0.779-0.956,0.783    c-0.586,0.002-1.16-0.168-1.126-0.896c0.026-0.512,0.472-0.803,0.949-0.85C652.982,362.59,653.319,363.012,653.456,363.617"
   id="path176" />
		<path
   clip-path="url(#SVGID_12_)"
   fill="#FFFFFF"
   d="M765.024,448.365c0.095,0.672-0.219,0.986-0.743,1.01    c-0.533,0.025-1.184,0.064-1.313-0.668c-0.101-0.561,0.37-0.834,0.807-0.963C764.386,447.566,764.852,447.809,765.024,448.365"
   id="path178" />
		<path
   clip-path="url(#SVGID_12_)"
   fill="#FFFFFF"
   d="M706.988,437.951c-0.095,0.652-0.181,1.252-0.96,1.115    c-0.543-0.094-0.68-0.604-0.653-1.059c0.033-0.57,0.257-1.1,0.981-1.025C707.002,437.049,706.848,437.639,706.988,437.951"
   id="path180" />
		<path
   clip-path="url(#SVGID_12_)"
   fill="#FFFFFF"
   d="M556.71,449.982c-0.059,0.547-0.322,0.922-0.782,1.029    c-0.609,0.145-1.088-0.135-1.225-0.758c-0.114-0.531,0.236-0.873,0.717-0.965C556.021,449.176,556.456,449.473,556.71,449.982"
   id="path182" />
		<path
   clip-path="url(#SVGID_12_)"
   fill="#FFFFFF"
   d="M572.638,439.072c-0.637-0.184-0.9-0.664-0.807-1.264    c0.073-0.473,0.402-0.887,0.953-0.797c0.662,0.109,0.904,0.629,0.798,1.238C573.498,438.721,573.205,439.086,572.638,439.072"
   id="path184" />
		<path
   clip-path="url(#SVGID_12_)"
   fill="#FFFFFF"
   d="M580.423,421.801c-0.048,0.615-0.18,1.111-0.746,1.082    c-0.59-0.033-1.034-0.422-0.979-1.072c0.056-0.623,0.503-0.98,1.114-0.932C580.431,420.928,580.332,421.51,580.423,421.801"
   id="path186" />
		<path
   clip-path="url(#SVGID_12_)"
   fill="#FFFFFF"
   d="M710.569,420.451c-0.572-0.201-1.032-0.58-0.797-1.201    c0.138-0.355,0.62-0.795,0.964-0.811c0.771-0.037,0.713,0.691,0.694,1.203C711.415,420.115,711.177,420.521,710.569,420.451"
   id="path188" />
		<path
   clip-path="url(#SVGID_12_)"
   fill="#FFFFFF"
   d="M773.976,478.768c0.044,0.463-0.279,0.766-0.817,0.736    c-0.492-0.029-0.89-0.305-0.88-0.877c0.011-0.643,0.367-1.076,1.012-1.029C773.85,477.641,773.966,478.146,773.976,478.768"
   id="path190" />
		<path
   clip-path="url(#SVGID_12_)"
   fill="#FFFFFF"
   d="M608.495,422.826c-0.423-0.189-0.84-0.563-0.657-1.203    c0.129-0.455,0.534-0.807,1.021-0.764c0.781,0.066,0.696,0.73,0.642,1.25C609.451,422.572,609.26,423.021,608.495,422.826"
   id="path192" />
		<path
   clip-path="url(#SVGID_12_)"
   fill="#FFFFFF"
   d="M720.41,486.061c-0.565-0.014-0.865-0.387-0.923-0.859    c-0.071-0.6,0.155-1.145,0.85-1.199c0.526-0.041,0.886,0.324,0.942,0.826C721.349,485.447,721.057,485.902,720.41,486.061"
   id="path194" />
		<path
   clip-path="url(#SVGID_12_)"
   fill="#FFFFFF"
   d="M637.73,403.824c0.733,0.039,0.891,0.447,0.909,0.928    c0.023,0.574-0.057,1.164-0.817,1.088c-0.442-0.045-0.861-0.33-0.894-0.875C636.891,404.303,637.394,404.066,637.73,403.824"
   id="path196" />
		<path
   clip-path="url(#SVGID_12_)"
   fill="#FFFFFF"
   d="M665.485,402.414c-0.201,0.93-0.687,0.947-1.151,0.873    c-0.509-0.078-0.861-0.43-0.739-0.961c0.146-0.637,0.641-0.906,1.269-0.715C665.38,401.773,665.518,402.215,665.485,402.414"
   id="path198" />
		<path
   clip-path="url(#SVGID_12_)"
   fill="#FFFFFF"
   d="M569.949,403.344c-0.643,0.016-1.058-0.234-1.062-0.744    c-0.007-0.582,0.368-1.02,0.997-1.053c0.525-0.027,0.852,0.346,0.927,0.811C570.922,403.061,570.445,403.301,569.949,403.344"
   id="path200" />
		<path
   clip-path="url(#SVGID_12_)"
   fill="#FFFFFF"
   d="M558.184,473.547c0.493,0.125,0.808,0.404,0.817,0.943    c0.008,0.561-0.318,0.893-0.828,0.857c-0.46-0.029-0.876-0.309-0.858-0.875C557.331,473.932,557.725,473.699,558.184,473.547"
   id="path202" />
		<path
   clip-path="url(#SVGID_12_)"
   fill="#FFFFFF"
   d="M606.669,445.379c0.491,0.793,0.788,1.516-0.589,1.633    c-0.517-0.209-1.09-0.445-0.813-1.137C605.51,445.27,606.09,445.234,606.669,445.379"
   id="path204" />
		<path
   clip-path="url(#SVGID_12_)"
   fill="#FFFFFF"
   d="M599.9,395.086c-0.038,0.512-0.354,0.969-0.943,1.059    c-0.57,0.088-0.752-0.385-0.788-0.871c-0.043-0.617,0.188-1.146,0.85-1.156C599.461,394.111,599.862,394.434,599.9,395.086"
   id="path206" />
		<path
   clip-path="url(#SVGID_12_)"
   fill="#FFFFFF"
   d="M659.604,364.5c-0.493-0.092-0.873-0.297-0.856-0.881    c0.015-0.51,0.227-0.953,0.742-1.016c0.672-0.08,0.999,0.371,1.009,1.002C660.508,364.174,660.054,364.352,659.604,364.5"
   id="path208" />
		<path
   clip-path="url(#SVGID_12_)"
   fill="#FFFFFF"
   d="M704.685,404.15c-0.129,0.504-0.425,0.885-0.96,0.766    c-0.55-0.121-1.075-0.43-0.884-1.145c0.15-0.561,0.67-0.543,1.127-0.533C704.555,403.252,704.745,403.611,704.685,404.15"
   id="path210" />
		<path
   clip-path="url(#SVGID_12_)"
   fill="#FFFFFF"
   d="M747.313,414.885c0.038,0.428-0.11,0.844-0.67,0.902    c-0.491,0.049-0.921-0.164-0.97-0.707c-0.054-0.596,0.242-1.119,0.838-1.193C747.05,413.816,747.21,414.346,747.313,414.885"
   id="path212" />
		<path
   clip-path="url(#SVGID_12_)"
   fill="#FFFFFF"
   d="M677.856,413.68c0.045,0.506-0.056,0.959-0.653,0.994    c-0.483,0.027-0.941-0.164-1.009-0.715c-0.075-0.633,0.3-1.111,0.878-1.199C677.635,412.676,677.785,413.207,677.856,413.68"
   id="path214" />
	</g>
	
		<linearGradient
   id="polygon16_1_"
   gradientUnits="userSpaceOnUse"
   x1="462.8081"
   y1="-249.8726"
   x2="425.6336"
   y2="-180.5925"
   gradientTransform="matrix(1 0 0 -1 -413.4512 -51.2402)">
		<stop
   offset="0"
   style="stop-color:#0070B6"
   id="stop218" />
		<stop
   offset="1"
   style="stop-color:#1D2C5E"
   id="stop220" />
	</linearGradient>
	<polygon
   id="polygon16"
   fill="url(#polygon16_1_)"
   points="0,135.666 44.628,211.002 62.446,194.009 13.871,121.572  " />
	<polygon
   id="polygon18"
   fill="#0071B9"
   points="662.632,76.457 660.902,86.386 682.251,79.496 679.589,67.335  " />
	
		<linearGradient
   id="polygon25_1_"
   gradientUnits="userSpaceOnUse"
   x1="916.1973"
   y1="-108.3403"
   x2="963.3836"
   y2="-57.7816"
   gradientTransform="matrix(1 0 0 -1 -413.4512 -51.2402)">
		<stop
   offset="0"
   style="stop-color:#0070B6"
   id="stop225" />
		<stop
   offset="1"
   style="stop-color:#1D2C5E"
   id="stop227" />
	</linearGradient>
	<polygon
   id="polygon25"
   fill="url(#polygon25_1_)"
   points="538.259,8.632 469.576,87.394 489.562,81.646 554.954,0  " />
	<polygon
   id="polygon27"
   fill="#1D2C5E"
   points="905.694,116.325 922.555,107.336 917.733,149.553  " />
	<polygon
   id="polygon29"
   fill="#1D2C5E"
   points="800.909,143.396 815.891,146.461 835.018,137.177 818.42,130.982  " />
	
		<linearGradient
   id="polygon36_1_"
   gradientUnits="userSpaceOnUse"
   x1="710.3379"
   y1="-192.6265"
   x2="704.7115"
   y2="-145.3591"
   gradientTransform="matrix(1 0 0 -1 -413.4512 -51.2402)">
		<stop
   offset="0"
   style="stop-color:#0070B6"
   id="stop233" />
		<stop
   offset="1"
   style="stop-color:#1D2C5E"
   id="stop235" />
	</linearGradient>
	<polygon
   id="polygon36"
   fill="url(#polygon36_1_)"
   points="284.257,98.57 286.653,147.49 307.567,139.04 301.307,89.423  " />
	
		<linearGradient
   id="polygon43_1_"
   gradientUnits="userSpaceOnUse"
   x1="1225.7764"
   y1="-183.5293"
   x2="1223.5292"
   y2="-140.8599"
   gradientTransform="matrix(1 0 0 -1 -413.4512 -51.2402)">
		<stop
   offset="0"
   style="stop-color:#125D9E"
   id="stop239" />
		<stop
   offset="1"
   style="stop-color:#1D2C5E"
   id="stop241" />
	</linearGradient>
	<polygon
   id="polygon43"
   fill="url(#polygon43_1_)"
   points="817.124,83.969 800.294,93.054 800.909,143.396 817.855,134.708    823.168,110.345  " />
	<polygon
   id="polygon45"
   fill="#312370"
   points="814.812,146.603 796.279,311.26 825.907,305.415 831.714,137.725  " />
	<polygon
   id="polygon47"
   fill="#21386E"
   points="851.103,319.154 851.623,341.484 908.508,359.613 925.438,350.641 869.625,307.396    813.087,302.432 796.279,311.26  " />
	<polygon
   id="polygon49"
   fill="#21386E"
   points="640.082,279.879 654.063,272.352 662.972,288.813 676.15,281.573 678.771,303.277    761.465,317.939 777.992,308.853 663.961,239.371 583.069,253.236 567.29,268.233  " />
	
		<linearGradient
   id="polygon56_1_"
   gradientUnits="userSpaceOnUse"
   x1="1068.2949"
   y1="-122.0313"
   x2="1018.7776"
   y2="-200.8082"
   gradientTransform="matrix(1 0 0 -1 -413.4512 -51.2402)">
		<stop
   offset="0"
   style="stop-color:#125D9E"
   id="stop248" />
		<stop
   offset="1"
   style="stop-color:#1D2C5E"
   id="stop250" />
	</linearGradient>
	<polygon
   id="polygon56"
   fill="url(#polygon56_1_)"
   points="613.752,77.293 597.195,86.403 567.29,268.233 584.04,259.531    612.751,157.434  " />
	<polygon
   id="polygon58"
   fill="#1D2C5E"
   points="481.647,101.665 468.456,108.689 469.569,113.088 500.956,93.148 487.239,78.427    469.576,87.394  " />
	<polygon
   id="polygon60"
   fill="#21386E"
   points="517.708,316.447 382.85,249.645 399.781,236.846 534.485,307.382  " />
	<polygon
   id="polygon62"
   fill="#1D2C5E"
   points="395.522,67.828 375.087,106.583 396.679,100.042 412.263,58.746  " />
	
		<linearGradient
   id="path69_1_"
   gradientUnits="userSpaceOnUse"
   x1="630.0645"
   y1="-248.3828"
   x2="663.8276"
   y2="-314.7844"
   gradientTransform="matrix(1 0 0 -1 -413.4512 -51.2402)">
		<stop
   offset="0"
   style="stop-color:#105FA1"
   id="stop257" />
		<stop
   offset="1"
   style="stop-color:#1D2C5E"
   id="stop259" />
	</linearGradient>
	<path
   id="path69"
   fill="url(#path69_1_)"
   d="M210.164,227.927l-17.241,11.835c0,0,3.66,19.235,8.378,32.619   c4.741,13.431,16.03,24.216,16.03,24.216c7.252,7.088,16.14,12.249,26.055,15.141c19.071,5.49,40.595,1.914,59.072-9.872   c4.83-3.055,11.391-7.951,15.42-11.815C299.716,301.073,210.164,227.927,210.164,227.927z" />
	<polygon
   id="polygon71"
   fill="#1D2C5E"
   points="302.433,143.501 318.167,317.088 382.458,307.575 399.657,298.562 319.872,133.096    303.46,138.626 286.653,147.49  " />
	
		<linearGradient
   id="polygon78_1_"
   gradientUnits="userSpaceOnUse"
   x1="502.666"
   y1="-225.7192"
   x2="541.7414"
   y2="-316.3035"
   gradientTransform="matrix(1 0 0 -1 -413.4512 -51.2402)">
		<stop
   offset="0"
   style="stop-color:#105FA1"
   id="stop264" />
		<stop
   offset="1"
   style="stop-color:#1D2C5E"
   id="stop266" />
	</linearGradient>
	<polygon
   id="polygon78"
   fill="url(#polygon78_1_)"
   points="61.417,203.793 133.247,366.701 201.489,344.686 218.151,333.486    76.511,185.289 58.786,195.908 44.628,211.002  " />
	<path
   id="path270"
   fill="#1D2C5E"
   d="M773.301,280.651l0.965,7.999c5.878-0.659,12.055-1.421,17.338-3.302   c6.159-2.109,19.545-8.07,24.632-12.459C814.325,273.585,782.971,281.709,773.301,280.651" />
	<path
   id="path272"
   fill="#1D2C5E"
   d="M531.87,239.055l2.557,12.88c13.814-2.058,25.674-7.167,37.329-14.174   c7.313-4.355,15.343-10.93,17.88-12.681C587.847,226.223,531.87,239.055,531.87,239.055z" />
	<g
   id="g84"
   transform="translate(-5.451,-1.686)">
		<path
   id="path274"
   fill="#FFCB05"
   d="M157.372,352.942l-5.332-11.852L83.934,189.092l-1.398-3.118l-3.096,1.429l-2.066,0.95    l-12.125,5.954c-1.787-2.997-4.756-8.024-6.82-11.506l-27.412-46.33l-7.17-12.093l11.86-7.516    c11.218-7.154,23.887-13.765,37.671-19.65c27.443-11.691,55.453-17.874,80.996-17.874c8.402,0,16.532,0.682,24.17,2.008    c12.732,1.454,24.507,5.632,34.234,12.113c14.494,8.103,25.906,20.674,32.352,35.55c5.293,12.224,6.324,26.538,2.961,41.39    l-1.973,8.727l7.247-5.254c4.884-3.544,10.188-6.575,15.772-9.003c9.647-4.08,19.631-6.161,29.631-6.161    c9.467,0,18.418,1.874,26.607,5.559l5.281,2.367l-0.529-5.762l-2.299-24.905l-0.367-3.949l-3.85,0.999l-11.536,2.99l-2.021-42.406    L394.57,66.6l-0.685,32.956l6.367,1.635l18.453-35.374l55.284,49.03l2.306,2.051l2.25-2.113    c7.574-7.118,16.549-12.829,26.677-16.976l4.229-1.729l-2.896-3.537l-9.969-12.151l63.47-73.159l33.241,49.6l-50.881,27.35    l-11.301,6.078l12.83,0.271c24.121,0.507,45.48,10.713,60.136,28.73l5.299,6.536l3.414,4.196l-5.673,6.019l-3.777,4.015    l-12.714,13.561l-2.367,2.52l2.555,2.309l11.92,10.726l4.605,4.146l0.99-6.112l4.568-28.308l1.171-7.266l0.039,0.043l1.2-7.422    l6.825-41.785h60.927h2.86l0.48-2.819l1.19-7.154h54.866l13.293,83.947l0.866,5.437l4.453-3.232    c5.386-3.911,11.334-7.128,17.688-9.561c8.457-3.189,17.162-4.82,25.853-4.82c10.35,0,20.396,2.391,29.08,6.907    c0.231,0.167,0.558,0.381,1.002,0.558l4.121,1.656l0.489-4.421l0.994-9.151l0.328-2.997l-2.953-0.655l-11.122-2.487l-0.543-43.76    l84.823,18.667l6.371,31.489l6.586,0.131l6.57-27.097l70.734,17.2L928.81,348.125l-51.723-16.242l-0.37-20.068l-0.05-2.877    l-2.852-0.399l-51.616-7.283l2.922-26.235l0.693-6.241l-5.582,2.859c-2.646,1.349-5.21,2.479-7.628,3.371    c-8.439,3.192-17.081,4.805-25.688,4.805c-2.488,0-4.991-0.138-7.426-0.413l-4.406-0.494l0.688,4.378l3.631,23.075l-75.3-13.283    l-3.942-34.24l-1.268-10.974l-5.075,9.811l-8.67,16.718l-15.959-29.468l-4.798-8.849l-1.515,9.944l-3.479,22.809l-65.993-10.385    l5.117-31.305l1.166-7.175l-6.237,3.728c-10.804,6.476-23.211,11.348-37.918,14.899c-5.139,1.257-10.509,2.124-15.976,2.577    l-3.094,0.261v3.105v59.072l-129.973-64.235l-4.881-2.406l0.002,5.443l0.088,54.937l-58.107,8.563l-2.442-26.383l-0.66-7.059    l-5.065,4.967c-7.677,7.513-16.33,13.34-25.706,17.32c-9.593,4.077-19.49,6.138-29.411,6.138c-9.904,0-19.211-2.069-27.666-6.116    c-15.658-7.535-26.955-21.202-31.803-38.448c-2.308-8.1-2.936-16.657-1.863-25.434l1.148-9.354l-6.822,6.494    c-4.809,4.567-9.99,8.926-15.408,12.931l-1.837,1.351l0.58,2.212l19.575,75.141l3.459,13.332l-13.108,4.168l-36.856,11.799    L157.372,352.942L157.372,352.942z M173.917,151.224c-1.901,0-3.864,0.175-5.843,0.534l-2.508,0.481l-3.704,0.713l1.118,3.606    l0.728,2.344l10.537,34.487l1.056,3.313l1.565,4.976l3.896-3.469l2.588-2.305c10.215-9.18,13.795-18.5,11.641-30.257    c-1.359-7.056-6.822-10.571-9.96-12.038C181.749,152.029,177.995,151.224,173.917,151.224L173.917,151.224z M456.454,152.358    l-6.588,6.412l-17.349,16.859l-3.78,3.671l4.922,1.899l18.605,7.183l5.713,2.2l-1.18-6.005    c-1.535-7.755-1.938-15.518-1.217-23.071L456.454,152.358L456.454,152.358L456.454,152.358z M532.218,133.184    c-7.197,0-14.16,3.096-19.106,8.483c-7.501,8.194-8.961,20.28-3.623,30.07l1.412,2.651l2.277,4.244l3.203-3.586l2.058-2.279    l25.45-29.058l1.998-2.301l3.212-3.69l-4.58-1.695l-2.854-1.056C538.668,133.796,535.466,133.184,532.218,133.184L532.218,133.184    L532.218,133.184z" />
	</g>
	<path
   id="path277"
   fill="#7D7F68"
   d="M565.695,174.537c-0.241,0.215-0.47,0.489-0.663,0.772c0.258-0.236,0.502-0.44,0.769-0.652   L565.695,174.537z" />
	<polygon
   id="polygon90"
   fill="#7D7F68"
   points="587.644,154.213 600.349,140.653 596.001,145.27 596.131,144.687 592.282,148.742    579.583,162.262 591.484,172.964 593.638,159.635 599.558,164.937  " />
	<polygon
   id="polygon92"
   fill="#7D7F68"
   points="587.644,154.213 599.558,164.937 604.124,136.637 600.349,140.653  " />
	<path
   id="path281"
   fill="#7D7F68"
   d="M429.418,176.357l0.196,0.079L429.418,176.357z" />
	<path
   id="path283"
   fill="#C7A008"
   d="M499.785,188.126c1.021,1.03,0.081,0.291,1.219,1.069l7.772-5.483   c-1.152-0.814-2.297-1.693-3.345-2.671c-11.281-10.277-8.351-33.399-1.032-46.054c-19.266,15.542-18.262,39.465-4.611,53.139" />
	<path
   id="path285"
   fill="#C7A008"
   d="M593.638,201.073c-12.84,10.617-27.479,17.543-46.815,22.214   c-4.225,0.972-8.365,1.675-12.42,2.03c-30.692,3.019-56.443-11.075-66.214-33.935c-1.219-2.768-2.156-5.57-2.863-8.56   c-4.523-19.254-0.662-36.458,8.85-49.943c0.942-1.309,1.932-2.559,2.973-3.832c-0.486,0.415-0.986,0.773-1.389,1.16   c-3.656,3.254-6.889,6.821-9.643,10.72c-9.521,13.485-13.381,30.699-8.822,49.92c0.7,2.995,1.625,5.835,2.813,8.543   c9.777,22.911,35.537,36.997,66.204,34.003c4.084-0.394,8.212-1.069,12.441-2.091c19.362-4.672,33.986-11.569,46.826-22.186   c3.138-2.581,6.161-5.394,9.095-8.47l-0.271-0.26C594.109,200.64,593.891,200.857,593.638,201.073" />
	<polygon
   id="polygon100"
   fill="#C7A008"
   points="377.327,142.87 411.62,94.681 410.229,93.395 377.142,139.874  " />
	<polygon
   id="polygon102"
   fill="#C7A008"
   points="604.124,136.637 599.558,164.937 593.638,159.635 591.484,172.964    579.583,162.262 592.282,148.742 596.131,144.687 596.001,145.27 600.349,140.653  " />
	<polygon
   id="polygon104"
   fill="#C7A008"
   points="561.75,57.26 573.755,52.106 551.809,23.937 544.615,33.983  " />
	<path
   id="path290"
   fill="#C7A008"
   d="M229.284,127.047c-55.426-67.523-155.301-31.228-191.197,0.355l1.402,2.424   c8.254-4.735,16.955-9.015,26.109-12.857c35.657-15.232,69.648-19.697,96.903-14.927c9.632,1.105,19.837,3.964,28.719,9.908   c12.294,6.886,21.614,16.677,27.06,29.228c9.668,22.229,1.151,51.787-21.615,76.531C225.22,191.509,244.76,166.437,229.284,127.047   z" />
	<path
   id="path292"
   fill="#C7A008"
   d="M342.366,205.714c-0.258-1.225-0.52-2.469-0.918-3.667   c-3.12-11.227-9.828-20.19-18.616-26.152c-14.229-9.665-34.09-11.651-53.884-3.295c-10.414,4.506-19.468,11.431-26.627,19.708   c5.504-4.736,11.794-8.679,18.589-11.618c19.749-8.383,39.61-6.404,53.888,3.25c8.792,5.968,15.438,14.927,18.627,26.14   c0.355,1.202,0.631,2.463,0.903,3.729c0.845,4.269,1.239,8.582,1.075,13.003c-0.413,12.923-5.203,25.933-13.17,37.044   c-1.282,1.757-2.633,3.399-4.033,5.023c4.533-3.915,8.586-8.244,12.043-13.097c8.002-11.039,12.778-24.075,13.202-37.074   C343.624,214.373,343.265,209.984,342.366,205.714" />
	<path
   id="path294"
   fill="#C7A008"
   d="M287.787,189.232c-0.077,0.123,8.042-8.045,7.95-8.045   c-10.157-0.388-14.451,9.19-14.803,9.945C283.021,190.124,285.319,189.468,287.787,189.232" />
	<path
   id="path296"
   fill="#C7A008"
   d="M306.919,200.941c0.414,1.378,0.627,2.747,0.627,4.245c0,2.117-0.471,4.146-1.33,6.017   c1.627-0.849,13.373-6.545,8.82-18.614C315.28,192.958,306.625,200.906,306.919,200.941" />
	<path
   id="path298"
   fill="#C7A008"
   d="M260.716,207.656c0-4.964,8.502-17.011,11.151-21.029   c-13.425,8.534-19.208,20.055-19.208,29.13c0,15.542,13.661,28.046,29.993,28.046c7.728,0,21.874-4.084,31.13-19.062   c-4.848,3.188-17.178,10.828-23.645,10.828C273.81,235.565,260.716,223.287,260.716,207.656" />
	<polygon
   id="polygon116"
   fill="#C7A008"
   points="375.651,221.885 375.866,284.805 385.851,285.377 383.878,213.651  " />
	<polygon
   id="polygon118"
   fill="#C7A008"
   points="318.334,102.096 318.538,107.685 365.864,93.594 369.372,153.858 377.269,142.794    375.583,82.316  " />
	<polygon
   id="polygon120"
   fill="#C7A008"
   points="461.396,123.673 416.944,82.874 411.62,94.681 450.745,131.437  " />
	<path
   id="path303"
   fill="#C7A008"
   d="M454.642,199.707l-52.192-17.259l-7.604,8.032l51.994,20.809   c5.896,11.111,14.833,20.627,26.082,27.585c10.895,6.661,23.338,10.651,36.523,11.916v25.68l8.06,4.022l2.552-38.578   l-65.418-42.208H454.642z" />
	<path
   id="path305"
   fill="#C7A008"
   d="M538.451,192.446c12.813-3.091,20.207-9.777,26.569-17.137   c-4.776,3.918-28.715,9.136-32.737,10.499l-7.886,8.397C528,194.522,534.021,193.552,538.451,192.446" />
	<path
   id="path307"
   fill="#C7A008"
   d="M515.134,103.698c-23.635,3.095-35.951,22.936-37.986,25.354   c8.726-7.375,19.667-12.847,31.985-15.765c29.25-7.074,55.035,1.845,70.973,21.549l9.864-8.35   C574.185,107.123,544.373,96.646,515.134,103.698" />
	<path
   id="path309"
   fill="#C7A008"
   d="M594.407,200.387c2.846-2.396,7.914-4.82,10.608-7.644l-31.646-28.277   c-2.426,2.899-4.622,7.671-7.578,10.187L594.407,200.387L594.407,200.387z" />
	<path
   id="path311"
   fill="#C7A008"
   d="M756.813,276.166c-33.199-27.29-31.218-85.81-14.916-104.376L727.27,80.073l-31.999,4.131   l-1.421,8.079h24.208l12.821,83.215c-16.316,18.627-24.193,43.578-18.743,66.424c4.218,17.652,15.062,31.939,30.67,40.206   c1.569,0.858,3.192,1.608,4.852,2.319l0.204,1.221l9.521,1.5C757.382,287.165,758.371,276.959,756.813,276.166L756.813,276.166z" />
	<polygon
   id="polygon132"
   fill="#C7A008"
   points="629.199,93.569 627.827,101.655 664.321,101.655 675.068,160.588 683.164,152.408    674.653,90.195  " />
	<polygon
   id="polygon134"
   fill="#C7A008"
   points="691.676,207.979 679.894,238.418 682.812,246.336 699.662,199.985  " />
	<polygon
   id="polygon136"
   fill="#C7A008"
   points="656.684,188.808 648.57,196.912 639.876,251.884 648.204,255.066  " />
	<path
   id="path138"
   fill="#C7A008"
   d="M820.588,171.25c4.776,3.41,8.849,7.727,11.916,12.858c2.421,3.936,4.248,8.346,5.419,13.185   c3.974,16.526-0.78,34.399-11.286,48.735c-1.058,1.457-2.221,2.863-3.339,4.244c4.27-3.671,56.108-41.905,5.462-92.122   c-55.704-18.364-76.788,17.979-78.76,20.283c5.885-5.001,12.677-9.14,20.032-11.953   C788.886,159.342,807.435,161.816,820.588,171.25" />
	<path
   id="path140"
   fill="#C7A008"
   d="M792.51,174.869c0.152,0.353,7.995-8.171,8.152-8.171c-9.91,0.409-14.673,5.192-14.184,7.401   c-0.594,0.858-1.071,1.707-1.453,2.645C787.138,175.689,791.052,174.881,792.51,174.869" />
	<path
   id="path142"
   fill="#C7A008"
   d="M811.143,187.329c0.357,1.328,0.531,2.72,0.498,4.216c-0.09,1.913-0.584,3.671-1.314,5.305   c1.507-0.678,13.521-4.407,8.937-17.628C819.378,179.599,811.013,187.337,811.143,187.329" />
	<path
   id="path319"
   fill="#C7A008"
   d="M784.826,229.3c11.213,0.478,23.615-6.408,32.503-18.582   c-22.811,4.68-46.799-33.312-44.395-37.034c-8.62,6.252-16.252,18.305-16.6,26.728C755.74,216.032,768.46,228.648,784.826,229.3" />
	<polygon
   id="polygon146"
   fill="#C7A008"
   points="909.856,328.291 915.204,331.871 980.474,135.985 931.623,124.696    931.011,136.169 970.417,144.911  " />
	<polygon
   id="polygon148"
   fill="#C7A008"
   points="832.344,103.698 832.773,114.639 884.705,125.069 904.702,219.896    912.797,211.741 893.747,115.937  " />
	<polygon
   id="polygon150"
   fill="#C7A008"
   points="872.311,211.759 858.013,292.629 866.248,295.297 880.442,203.793  " />
	<polygon
   id="polygon152"
   fill="#C7A008"
   points="198.335,322.303 174.043,234.229 165.151,240.447 187.665,324.826  " />
	<path
   id="path325"
   fill="#C7A008"
   d="M192.03,189.863c-5.604,5.947-18.024,17.496-25.102,22.056l-4.297-13.796l-9.412-30.254   l-5.982-20.483l-5.836,7.495l5.959,20.512l9.411,30.228l4.278,13.84C170.739,213.216,184.835,201.5,192.03,189.863" />
	<path
   id="path327"
   fill="#7D7F68"
   d="M536.233,137.785c-7.669-2.949-18.525-2.062-24.391,4.353   c-1.363,1.489-4.008,5.286-4.85,6.984c5.676-4.516,15.778-5.49,22.404-3.098L536.233,137.785L536.233,137.785z" />
	<path
   id="path329"
   fill="#7D7F68"
   d="M185.02,165.115c-0.861-4.527-5.295-8.122-7.47-9.123c-3.891-1.877-10.617-2.171-15.53-1.275   c0.882,3.051,1.895,6.628,2.326,8.092c1.991,0.279,5.267,0.873,6.983,1.656c2.157,1.041,5.928,3.487,6.803,8.045   c1.173,6.081,0.864,11.767-1.671,16.384C183.412,182.075,186.786,174.657,185.02,165.115" />
	<g
   id="g160"
   transform="translate(-5.451,-1.686)">
		<g
   id="g162">
			<path
   id="path331"
   fill="#3C5AA6"
   d="M202.643,166.673c-3.338-17.901-26.745-27.767-49.955-15.109l5.982,20.488l9.412,30.278     l4.292,13.79C189.787,204.925,207.29,191.473,202.643,166.673z M179.59,194.202c-2.534-8.271-8.093-26.133-8.093-26.133     c0.025,0.083-1.094-3.819-2.424-8.288c4.92-0.881,9.648-0.526,13.537,1.345c2.176,1.035,5.998,3.455,6.833,8.031     C191.366,179.452,187.895,186.797,179.59,194.202z" />
		</g>
	</g>
	<g
   id="g166"
   transform="translate(-5.451,-1.686)">
		<g
   id="g168">
			<path
   id="path335"
   fill="#3567B0"
   d="M553.832,138.273c-12.976-11.902-33.138-10.977-44.974,1.982     c-11.902,12.941-10.967,33.119,2.024,44.97c1.056,1.021,2.2,1.855,3.354,2.677l41.846-47.394     C555.346,139.736,554.6,138.968,553.832,138.273z M514.318,171.605c-4.091-7.512-3.265-17.053,2.854-23.74     c5.884-6.415,14.905-8.242,22.591-5.277L514.318,171.605z" />
		</g>
	</g>
	<polygon
   id="polygon172"
   fill="#1E2D5F"
   points="604.298,131.382 581.127,153.709 603.141,173.482  " />
	<path
   id="path340"
   fill="#3466AF"
   d="M819.196,179.222c0.352,1.406,0.537,2.797,0.489,4.281   c-0.387,8.854-8.708,15.688-18.631,15.225c-9.913-0.341-17.706-7.865-17.315-16.7c0.333-8.277,7.712-14.829,16.823-15.25   c-1.732-0.391-3.537-0.593-5.421-0.66c-16.601-0.717-30.167,11.038-30.74,25.677c-0.637,15.652,11.909,28.413,28.242,29.123   c16.625,0.663,30.185-11.133,30.846-26.713C823.68,188.805,822.082,183.63,819.196,179.222" />
	
		<linearGradient
   id="path183_1_"
   gradientUnits="userSpaceOnUse"
   x1="830.167"
   y1="1926.8164"
   x2="889.2793"
   y2="1926.8164"
   gradientTransform="matrix(1 0 0 1 -569.4512 -1718.6855)">
		<stop
   offset="0"
   style="stop-color:#3C5AA6"
   id="stop342" />
		<stop
   offset="0.9331"
   style="stop-color:#2B73B9"
   id="stop344" />
		<stop
   offset="1"
   style="stop-color:#2A75BB"
   id="stop346" />
	</linearGradient>
	<path
   id="path183"
   fill="url(#path183_1_)"
   d="M315.631,197.1c0,8.89-8.085,16.015-17.989,16.015   c-9.932,0-17.988-7.129-17.988-16.015c0-8.288,7.089-15.119,16.172-15.913c-1.739-0.315-3.552-0.496-5.421-0.496   c-16.595,0-29.688,12.308-29.688,26.965c0,15.642,13.098,27.913,29.422,27.913c16.611,0,29.69-12.278,29.69-27.913   c0-5.415-1.787-10.517-4.864-14.716C315.378,194.205,315.631,195.607,315.631,197.1" />
	<g
   id="g185"
   transform="translate(-5.451,-1.686)">
		<g
   id="g187">
			
				<linearGradient
   id="path196_1_"
   gradientUnits="userSpaceOnUse"
   x1="588.7293"
   y1="1898.0728"
   x2="1574.9021"
   y2="1898.0728"
   gradientTransform="matrix(1 0 0 1 -569.4512 -1718.6855)">
				<stop
   offset="0"
   style="stop-color:#3C5AA6"
   id="stop350" />
				<stop
   offset="0.9331"
   style="stop-color:#2B73B9"
   id="stop352" />
				<stop
   offset="1"
   style="stop-color:#2A75BB"
   id="stop354" />
			</linearGradient>
			<path
   id="path357"
   fill="url(#path196_1_)"
   d="M927.889,108.979l-7.368,30.376l-6.806-33.634l-91.141-20.063l0.638,50.678     l13.734,3.08l-0.988,9.14c-0.177-0.068-0.291-0.177-0.389-0.256c-17.024-8.984-38.131-9.905-58-2.4     c-6.661,2.549-12.85,5.902-18.459,9.975l-13.75-86.792h-60.613l-1.669,9.98h-63.795l-7.287,44.615l-5.29-6.534     c-15.461-18.993-37.873-29.456-62.695-29.973l54.165-29.112L560.405,1.69l-68.24,78.634l11.779,14.362     c-10.671,4.36-19.991,10.373-27.717,17.635l-58.511-51.915l-20.458,39.212l0.787-37.683l-91.479,29.224l2.345,49.149     l15.563-4.038l2.302,24.909c-17.783-7.987-39.157-7.792-58.982,0.587c-5.874,2.558-11.353,5.704-16.399,9.365     c3.431-15.174,2.617-30.134-3.166-43.474c-6.827-15.765-18.845-28.793-33.576-37.012c-10.328-6.882-22.637-11.169-35.518-12.625     c-31.654-5.534-69.667,0.147-107.076,16.086c-13.754,5.868-26.582,12.525-38.154,19.896l-14.625,9.275l8.832,14.913l27.41,46.326     c0,0,8.386,14.19,8.443,14.184l14.821-7.284l2.065-0.95l68.109,152.006l6.568,14.613l15.207-4.9l36.852-11.805l16.148-5.135     l-4.26-16.438l-19.572-75.13c5.631-4.168,10.885-8.585,15.736-13.214c-1.095,8.978-0.521,18.068,1.951,26.764     c5.117,18.214,17.044,32.602,33.595,40.571c17.878,8.593,39.687,8.614,59.866,0.059c10.117-4.295,19.115-10.561,26.744-18.015     l2.776,29.923l64.536-9.506l-0.102-57.864l134.847,66.646v-64.53c5.41-0.452,10.935-1.308,16.485-2.671     c14.852-3.586,27.562-8.509,38.854-15.271l-5.665,34.657l72.703,11.441l3.994-26.163l18.987,35.077l11.608-22.363l4.241,36.721     l82.435,14.532l-4.375-27.73c11.285,1.275,23.18-0.239,34.671-4.574c2.722-1.003,5.408-2.228,7.979-3.543l-3.285,29.506     l54.866,7.741l0.41,22.501l57.205,17.957l74.483-224.498L927.889,108.979L927.889,108.979z M605.8,142.342l3.783-4.019     l-4.564,28.303l-11.916-10.73L605.8,142.342z M557.492,26.721l19.976,27.133l-57.105,28.307l-3.945-5.994L557.492,26.721z      M179.383,235.935l22.78,87.415l-36.872,11.781L89.628,166.152c-4.115,2.164-11.716,5.792-18.696,9.212l-27.397-46.282     c10.896-6.958,22.845-13.127,35.554-18.494c35.671-15.173,69.706-19.7,96.925-14.891c9.631,1.083,19.825,3.925,28.753,9.85     c12.249,6.901,21.62,16.717,27.024,29.225C244.967,165.224,222.952,209.045,179.383,235.935z M348.903,220.382     c-0.424,13.013-5.2,26.053-13.202,37.084c-7.61,10.669-18.243,19.476-30.753,24.861c-31.988,13.553-63.979,0-72.523-30.37     c-8.279-29.366,10.984-64.323,41.979-77.677c19.793-8.356,39.655-6.375,53.884,3.295c8.784,5.958,15.488,14.919,18.62,26.15     c0.391,1.192,0.652,2.442,0.913,3.668C348.716,211.67,349.075,216.059,348.903,220.382z M522.955,282.178l-133.8-66.921     l0.236,70.118l-34.613,4.718l-2.414-28.898c10.691-18.326,14.599-39.922,9.021-59.724c-3.063-10.882-8.716-20.331-16.402-27.901     l-4.969-58.926l-15.541,4.03l-0.684-14.901l55.582-16.551l3.406,57.328l40.947-57.531l40.031,38.124l-55.98,58.974l52.592,20.805     c5.875,11.133,14.836,20.593,26.082,27.561c10.869,6.708,23.32,10.677,36.498,11.978L522.955,282.178L522.955,282.178     L522.955,282.178z M453.482,185.225l-18.613-7.18l17.353-16.861C451.473,168.924,451.858,177.017,453.482,185.225z      M599.089,202.759c-12.84,10.617-27.479,17.543-46.815,22.214c-4.225,0.972-8.365,1.675-12.42,2.03     c-30.692,3.019-56.443-11.075-66.214-33.935c-1.219-2.768-2.156-5.57-2.863-8.56c-4.523-19.254-0.662-36.463,8.85-49.943     c2.74-3.936,5.986-7.521,9.641-10.749c8.958-7.996,20.396-13.805,33.398-16.927c29.237-7.053,54.989,1.872,70.778,21.242     l-55.717,59.307c3.776,0.711,9.784-0.278,14.221-1.34c13.268-3.236,20.693-10.282,27.238-17.954l22.267,20.03l6.744,6.095     C605.271,197.293,602.198,200.148,599.089,202.759z M717.297,281.9l-12.118-80.287l-17.143,44.293l-25.666-55.358h-0.289     l-10.145,64.107l-42.774-7.444l6.014-35.773c1.612-1.518,3.203-3.041,4.765-4.645l13.866-14.279l-13.474-12.068l14.314-85.194     h43.162l10.8,58.978l12.104-68.346h30.875l12.811,83.266c-16.303,18.57-24.225,43.536-18.773,66.37     c4.21,17.708,15.09,31.965,30.688,40.292c1.568,0.79,3.197,1.573,4.871,2.25l1.635,10.792L717.297,281.9L717.297,281.9z      M823.893,255.741c-4.718,3.36-9.908,6.211-15.489,8.274c-11.017,4.196-21.975,5.071-31.738,3.128     c-6.807-1.344-13.012-3.998-18.41-7.839c-8.591-6.211-14.913-15.384-17.701-26.905c-3.25-13.836-0.252-28.614,7.19-41.556     c3.712-6.327,8.475-12.275,14.105-17.399c6.284-5.632,13.568-10.246,21.671-13.362c18.863-7.037,37.466-4.608,50.563,4.805     c4.815,3.415,8.813,7.76,11.966,12.812c2.389,3.986,4.244,8.386,5.369,13.188c4.011,16.617-0.767,34.415-11.247,48.754     C835.68,245.754,830.208,251.244,823.893,255.741z M920.213,331.418l-31.631-9.422l-2.761-116.623l-15.909,89.963l-34.508-5.506     l2.472-25.904c22.534-19.04,34.479-49.075,27.932-76.297c-2.876-12.052-9.072-22.548-17.806-30.528l2.912-30.546l-13.046-3.476     l0.87-16.309l59.456,11.95l19.989,94.8l20.505-84.991l45.228,9.991L920.213,331.418L920.213,331.418z" />
		</g>
	</g>
	<g
   id="flowRoot3115"
   transform="matrix(0.93943959,0,0,0.93943959,14.793383,6.4307935)">
		<g
   id="g363">
			
			
		</g>
		<g
   id="g367">
			
			
		</g>
	</g>
</g>
</svg>
